<?xml version="1.0" encoding="utf-8"?>
<!-- Generator: Adobe Illustrator 25.2.0, SVG Export Plug-In . SVG Version: 6.00 Build 0)  -->
<svg version="1.1" id="Layer_1" xmlns="http://www.w3.org/2000/svg" xmlns:xlink="http://www.w3.org/1999/xlink" x="0px" y="0px"
	 viewBox="0 0 951 174" style="enable-background:new 0 0 951 174;" xml:space="preserve">
<style type="text/css">
	.st0{fill-rule:evenodd;clip-rule:evenodd;}
	.st1{fill:#131315;}
</style>
<path class="st0" d="M4.2,52.4c5.6-5.6,14.8-5.6,20.4,0l96.3,96.3c5.6,5.6,5.6,14.8,0,20.4c-5.6,5.6-14.8,5.6-20.4,0L4.2,72.8
	C-1.4,67.2-1.4,58,4.2,52.4z"/>
<path class="st0" d="M0,14.4C0,6.5,6.5,0,14.4,0h96.3c8,0,14.4,6.5,14.4,14.4c0,8-6.5,14.4-14.4,14.4H14.4C6.5,28.9,0,22.4,0,14.4z"
	/>
<path class="st0" d="M28.9,77v81.9c0,8-6.5,14.4-14.4,14.4c-8,0-14.4-6.5-14.4-14.4l0-96.3c0-3.8,1.5-7.5,4.2-10.2
	c2.7-2.7,6.4-4.2,10.2-4.2h96.3c8,0,14.4,6.5,14.4,14.4c0,8-6.5,14.4-14.4,14.4H28.9z"/>
<path class="st1" d="M265.6,158.9l-29.7-52.4h-12.7v52.4h-27V24.5h50.5c10.4,0,19.3,1.9,26.6,5.6c7.3,3.6,12.8,8.5,16.4,14.8
	c3.7,6.2,5.6,13.1,5.6,20.8c0,8.9-2.6,16.9-7.7,24.1c-5.1,7.1-12.8,11.9-22.9,14.6l32.2,54.5H265.6z M223.2,86.3h22.5
	c7.3,0,12.8-1.7,16.4-5.2c3.6-3.6,5.4-8.5,5.4-14.8c0-6.2-1.8-10.9-5.4-14.3c-3.6-3.5-9.1-5.2-16.4-5.2h-22.5V86.3z"/>
<path class="st1" d="M418.9,103.2c0,3.9-0.3,7.3-0.8,10.4h-78c0.6,7.7,3.3,13.7,8.1,18.1c4.8,4.4,10.6,6.5,17.5,6.5
	c10,0,17.1-4.3,21.4-12.9h29.1c-3.1,10.3-9,18.7-17.7,25.4c-8.7,6.5-19.5,9.8-32.2,9.8c-10.3,0-19.5-2.2-27.7-6.7
	c-8.1-4.6-14.4-11.1-19.1-19.5c-4.5-8.3-6.7-18-6.7-28.9c0-11,2.2-20.7,6.7-29.1c4.5-8.3,10.8-14.8,18.9-19.3
	c8.1-4.5,17.4-6.7,27.9-6.7c10.1,0,19.2,2.2,27.2,6.5c8.1,4.4,14.3,10.6,18.7,18.7C416.6,83.7,418.9,92.8,418.9,103.2z M390.9,95.5
	c-0.1-6.9-2.6-12.5-7.5-16.6c-4.9-4.2-10.9-6.4-17.9-6.4c-6.7,0-12.3,2.1-16.9,6.2c-4.5,4-7.3,9.6-8.3,16.8H390.9z"/>
<path class="st1" d="M487.5,74.3h-18.7v84.6h-27.4V74.3h-12.1V52.2h12.1v-5.4c0-13.1,3.7-22.7,11.2-28.9c7.4-6.2,18.7-9.1,33.7-8.7
	V32c-6.5-0.1-11.1,1-13.7,3.3c-2.6,2.3-3.9,6.5-3.9,12.5v4.4h18.7V74.3z"/>
<path class="st1" d="M552.3,160.6c-10.3,0-19.5-2.2-27.7-6.7c-8.2-4.6-14.7-11.1-19.5-19.5c-4.6-8.3-6.9-18-6.9-28.9
	c0-10.9,2.4-20.5,7.1-28.9c4.9-8.3,11.5-14.8,19.8-19.3c8.3-4.6,17.7-6.9,27.9-6.9c10.3,0,19.6,2.3,27.9,6.9
	c8.3,4.5,14.9,10.9,19.6,19.3c4.9,8.3,7.3,18,7.3,28.9c0,10.9-2.5,20.5-7.5,28.9c-4.9,8.3-11.6,14.8-20,19.5
	C572.1,158.4,562.7,160.6,552.3,160.6z M552.3,137.1c4.9,0,9.4-1.2,13.7-3.5c4.4-2.4,7.8-6,10.4-10.8s3.9-10.5,3.9-17.3
	c0-10.1-2.7-17.9-8.1-23.3c-5.3-5.5-11.7-8.3-19.5-8.3c-7.7,0-14.2,2.8-19.5,8.3c-5.1,5.4-7.7,13.2-7.7,23.3c0,10.1,2.5,18,7.5,23.5
	C538.2,134.4,544.6,137.1,552.3,137.1z"/>
<path class="st1" d="M690.9,158.9l-36.2-45.5v45.5h-27V16.4h27v81.1l35.8-45.3h35.1l-47,53.5l47.4,53.2H690.9z"/>
<path class="st1" d="M841,52.2v106.7h-27.2v-13.5c-3.5,4.6-8,8.3-13.7,11c-5.5,2.6-11.6,3.9-18.1,3.9c-8.3,0-15.7-1.7-22.2-5.2
	c-6.4-3.6-11.5-8.8-15.2-15.6c-3.6-6.9-5.4-15.2-5.4-24.7V52.2h27v58.7c0,8.5,2.1,15,6.4,19.6c4.2,4.5,10,6.7,17.3,6.7
	c7.4,0,13.3-2.2,17.5-6.7c4.2-4.6,6.4-11.2,6.4-19.6V52.2H841z"/>
<path class="st1" d="M908.4,160.6c-8.7,0-16.6-1.5-23.5-4.6c-6.9-3.2-12.5-7.5-16.6-12.9c-4-5.4-6.2-11.4-6.5-17.9H889
	c0.5,4.1,2.5,7.5,6,10.2c3.6,2.7,8,4,13.3,4c5.1,0,9.1-1,11.9-3.1c3-2.1,4.4-4.7,4.4-7.9c0-3.5-1.8-6-5.4-7.7
	c-3.5-1.8-9.1-3.7-16.8-5.8c-8-1.9-14.5-3.9-19.6-6c-5-2.1-9.4-5.2-13.1-9.4c-3.6-4.2-5.4-10-5.4-17.1c0-5.9,1.7-11.3,5-16.2
	c3.5-4.9,8.3-8.7,14.6-11.6c6.4-2.8,13.9-4.2,22.5-4.2c12.7,0,22.9,3.2,30.4,9.6c7.6,6.3,11.7,14.8,12.5,25.6h-25.8
	c-0.4-4.2-2.2-7.6-5.4-10c-3.1-2.6-7.3-3.9-12.5-3.9c-4.9,0-8.7,0.9-11.4,2.7c-2.6,1.8-3.9,4.3-3.9,7.5c0,3.6,1.8,6.4,5.4,8.3
	c3.6,1.8,9.2,3.7,16.8,5.6c7.7,1.9,14.1,3.9,19.1,6c5,2.1,9.3,5.3,12.9,9.6c3.7,4.2,5.6,9.9,5.8,16.9c0,6.2-1.7,11.7-5.2,16.6
	c-3.3,4.9-8.2,8.7-14.6,11.6C924.3,159.3,916.9,160.6,908.4,160.6z"/>
</svg>
